<?xml version="1.0" encoding="UTF-8"?><svg xmlns="http://www.w3.org/2000/svg" viewBox="0 0 1000 255.6"><defs><style>.uuid-7296caf3-0b7e-4524-927e-0f68d146bbaa{fill:#5b6e84;}.uuid-0783b88e-fdb0-4eed-b495-99daf2b3fc28{fill:#3e9ce1;}.uuid-15183a95-fad7-477c-8e71-93382ea4c57c{mix-blend-mode:multiply;opacity:.5;}.uuid-b6bec044-3816-43e4-892f-e907b3388151{fill:#5e6e85;}.uuid-493410b6-5e89-4185-8efb-99721a42ce54{fill:#760f7b;}.uuid-bbc13f7f-7dbd-468f-9bd5-7f2920bf351a{isolation:isolate;}.uuid-63fd37ae-6d09-4924-abbc-27cb81b15d26{fill:#e10070;}.uuid-ad2012ae-b5ee-4bc4-bdc5-81134af4fdd8{fill:#68701f;}</style></defs><g class="uuid-bbc13f7f-7dbd-468f-9bd5-7f2920bf351a"><g id="uuid-ac567d21-2950-4b75-ab2a-8c4b41ec655f"><path class="uuid-7296caf3-0b7e-4524-927e-0f68d146bbaa" d="M217.49.21L38.22,17.96C17.23,20.12,0,38.96,0,59.97v170.66c0,1.62,1.08,2.69,2.69,2.69,1.08,0,1.62-.54,2.15-1.08v-.54c4.31-8.61,11.84-15.07,20.46-19.38,3.23-1.62,7-2.69,10.76-3.23h2.15l179.27-17.77h1.08c4.31-.54,8.07-1.62,11.84-3.23,15.07-7,25.84-22.08,25.84-38.76V35.19c0-21.54-17.23-37.14-38.76-35h0ZM230.41,152.02c0,7-5.93,13.46-12.92,14l-179.27,17.77c-7,.54-12.92-4.31-12.92-11.3V57.27c0-7,5.93-13.46,12.92-14l179.27-17.77c7-.54,12.92,4.31,12.92,11.3v115.21Z"/><path class="uuid-7296caf3-0b7e-4524-927e-0f68d146bbaa" d="M219.65,199.39h-1.08l-179.27,17.77h-2.15c-2.69.54-5.39,1.08-8.07,2.69-7,3.23-12.92,8.61-16.69,15.61h0l-.54.54c0,.54-.54.54-1.08,1.08,2.69,1.08,5.39,1.62,8.61,1.62l169.58,16.69c19.92,2.15,36.07-12.92,36.07-32.84v-24.76c-1.62,1.08-3.77,1.62-5.39,1.62h0Z"/><g class="uuid-15183a95-fad7-477c-8e71-93382ea4c57c"><path class="uuid-7296caf3-0b7e-4524-927e-0f68d146bbaa" d="M219.65,199.39h-1.08l-179.27,17.77h-2.15c-2.69.54-5.39,1.08-8.07,2.69-7,3.23-12.92,8.61-16.69,15.61h0l-.54.54c0,.54-.54.54-1.08,1.08,2.69,1.08,5.39,1.62,8.61,1.62l169.58,16.69c19.92,2.15,36.07-12.92,36.07-32.84v-24.76c-1.62,1.08-3.77,1.62-5.39,1.62h0Z"/></g><path class="uuid-7296caf3-0b7e-4524-927e-0f68d146bbaa" d="M236.14,80.59v-26.37l-58.11,5.64c-9.86.96-17.38,9.24-17.38,19.15v41.58c0,11.36,9.79,20.25,21.1,19.15l54.39-5.28v-26.37l-44.92,4.36c-2.83.27-5.27-1.95-5.27-4.79v-17.83c0-2.48,1.88-4.55,4.34-4.79l45.85-4.45Z"/><path class="uuid-0783b88e-fdb0-4eed-b495-99daf2b3fc28" d="M747.72,224.25c.54,0,.99-.45.99-.99s-.44-1-.99-1-.99.45-.99,1,.44.99.99.99Z"/><path class="uuid-493410b6-5e89-4185-8efb-99721a42ce54" d="M824.21,232.04c.54,0,.99-.45.99-.99s-.44-1-.99-1-.99.45-.99,1,.44.99.99.99Z"/><path class="uuid-63fd37ae-6d09-4924-abbc-27cb81b15d26" d="M777.42,226.02c0-1.11-.39-2.05-1.08-2.68l-.05-.04h-.01c-.65-.56-1.55-.86-2.6-.87h-.25c-1.05.01-1.94.31-2.59.87l-.06.05c-.69.63-1.08,1.56-1.08,2.66v5.72c0,.07.03.15.08.2.06.05.13.08.21.08h1.02c.08,0,.16-.03.21-.08.06-.05.09-.13.09-.2v-5.52c0-.81.21-1.38.59-1.76.36-.37.91-.57,1.67-.59.75.01,1.31.23,1.66.59.38.38.58.95.58,1.77v5.52c0,.07.03.15.09.2.06.05.13.08.21.08h1.02c.08,0,.16-.03.21-.08.06-.05.09-.13.09-.2v-5.71h-.04s0-.01,0-.01Z"/><path class="uuid-63fd37ae-6d09-4924-abbc-27cb81b15d26" d="M812.87,226.02c0-1.11-.39-2.05-1.08-2.68l-.05-.04h-.01c-.65-.56-1.55-.86-2.6-.87h-.25c-1.05.01-1.94.31-2.59.87l-.06.05c-.69.63-1.08,1.56-1.08,2.66v5.72c0,.07.03.15.08.2.06.05.13.08.21.08h1.02c.08,0,.16-.03.21-.08.06-.05.09-.13.09-.2v-5.52c0-.81.21-1.38.59-1.76.36-.37.91-.57,1.67-.59.75.01,1.31.23,1.66.59.38.38.58.95.58,1.77v5.52c0,.07.03.15.09.2.06.05.13.08.21.08h1.02c.08,0,.16-.03.21-.08.06-.05.09-.13.09-.2v-5.71h-.04s0-.01,0-.01Z"/><path class="uuid-63fd37ae-6d09-4924-abbc-27cb81b15d26" d="M793.86,227.24v.04c0,.91-.1,1.8-.45,2.44-.34.61-.89,1.02-1.95,1.04h-.06c-1.07-.01-1.62-.42-1.96-1.04-.35-.64-.45-1.53-.45-2.45v-.05c0-.91.1-1.64.45-2.28.34-.62.9-1.03,1.96-1.04h.04c1.07,0,1.62.42,1.97,1.04.35.63.44,1.37.44,2.28v.03h.01ZM794.16,223.39l-.02-.02c-.58-.53-1.5-.87-2.58-.87h-.06c-.88,0-1.76.18-2.51.83v-3.45c0-.07-.03-.15-.09-.2-.06-.05-.13-.08-.21-.08h-1c-.08,0-.16.03-.21.08-.06.05-.09.13-.09.2v11.85c0,.07.03.15.09.2.06.05.13.08.21.08h1c.08,0,.16-.03.21-.08.06-.05.09-.12.09-.2v-.59c.66.75,1.62,1,2.51,1h.06c1.07,0,2-.34,2.57-.87,1.08-1.02,1.33-2.59,1.33-4.04s-.26-2.84-1.31-3.85"/><path class="uuid-63fd37ae-6d09-4924-abbc-27cb81b15d26" d="M766.84,228.53c0,.77-.17,1.18-.4,1.38-.54.5-1.21.57-2.03.57h-.02c-.79,0-1.31-.13-1.59-.35-.28-.2-.42-.49-.43-.98v-.02c0-.49.15-.8.44-1.01.3-.23.79-.37,1.53-.37h2.5v.77h0ZM768.52,225.59c0-.98-.33-1.81-1-2.36-.68-.56-1.65-.82-2.91-.83h-.06c-1.32,0-2.37.29-3.16,1.13l-.04.05c-.06.07-.12.13-.17.2l-.08.09c-.05.06-.07.13-.06.21,0,.08.05.15.11.2l.05.04.06.06.17.14.48.41c.06.05.14.08.21.08.08,0,.15-.04.19-.09l.31-.36c.19-.2.39-.36.62-.46.34-.14.76-.21,1.38-.23h.03c.88,0,1.43.18,1.74.46.32.27.47.67.47,1.32v.63h-2.6c-1.05,0-1.93.25-2.56.73-.63.48-.98,1.24-.98,2.1v.03c0,.72.28,1.43.76,1.93.66.65,1.56.9,2.9.9h.69c1.24,0,2.11-.31,2.68-.92.57-.61.8-1.5.8-2.6v-2.9h-.03Z"/><path class="uuid-63fd37ae-6d09-4924-abbc-27cb81b15d26" d="M797.82,229.18v-.02c0-.49.15-.8.44-1.01.3-.23.79-.37,1.53-.37h2.5v.78c0,.77-.17,1.18-.4,1.38-.54.5-1.21.57-2.03.57h-.02c-.79,0-1.31-.13-1.59-.35-.28-.2-.42-.49-.43-.98h0ZM803.97,225.6c0-.97-.33-1.81-1-2.36-.68-.56-1.65-.82-2.91-.82h-.06c-1.32,0-2.37.29-3.16,1.13l-.04.05c-.06.06-.12.13-.17.2l-.08.09c-.05.06-.07.13-.06.21,0,.08.05.15.11.2l.05.04s.04.04.06.06l.17.14.48.41c.06.05.14.08.21.08.08,0,.15-.04.19-.09l.31-.36c.19-.2.39-.36.62-.46.34-.14.77-.21,1.38-.23h.02c.88,0,1.43.18,1.74.46.32.27.47.67.47,1.32v.63h-2.6c-1.05,0-1.93.24-2.57.73-.63.48-.98,1.22-.98,2.1v.03c0,.72.28,1.43.76,1.93.66.65,1.56.9,2.9.9h.69c1.24,0,2.11-.31,2.68-.92.57-.61.8-1.5.8-2.6v-2.9h-.01s0,0,0,0Z"/><path class="uuid-63fd37ae-6d09-4924-abbc-27cb81b15d26" d="M752.86,222.45h-1.72v-2.59c0-.15-.13-.28-.3-.28h-1.03c-.08,0-.15.03-.2.08s-.09.12-.09.19v9.72c0,.66.19,1.26.61,1.72.4.44,1.05.71,1.8.71h.94c.07,0,.15-.03.2-.09.05-.06.08-.13.08-.21v-1.01c0-.08-.03-.16-.08-.21-.05-.06-.12-.09-.2-.09h-.8c-.16,0-.3-.03-.41-.06-.07-.02-.11-.05-.15-.08-.04-.03-.07-.05-.11-.09-.15-.16-.24-.42-.25-.8v-5.26h1.72c.07,0,.15-.03.2-.09.05-.06.08-.13.08-.21v-1.01c0-.08-.03-.16-.08-.21-.05-.06-.12-.09-.2-.09"/><path class="uuid-63fd37ae-6d09-4924-abbc-27cb81b15d26" d="M760.25,223.63l-.09-.1s-.01-.02-.02-.04l-.06-.06-.08-.08-.06-.07c-.58-.61-1.32-.87-2.08-.87h-.06c-.55,0-1.19.25-1.59.71l-.27.32v-.71c0-.07-.03-.15-.09-.2s-.13-.08-.21-.08h-1c-.08,0-.16.03-.21.08-.06.05-.09.12-.09.2v8.99c0,.07.03.15.09.2s.13.08.21.08h1.01c.08,0,.16-.03.21-.08.06-.05.09-.12.09-.2v-5.94c.03-.5.18-.94.45-1.27.28-.35.68-.57,1.22-.57.29,0,.48.03.64.1.16.07.32.18.53.41l.05.05.21.25c.05.06.12.09.2.09s.16-.03.23-.08l.75-.68c.06-.05.1-.13.1-.21s-.02-.15-.07-.21"/><path class="uuid-63fd37ae-6d09-4924-abbc-27cb81b15d26" d="M785.49,227.09h-.01c-.58-.41-1.33-.55-2.12-.62l-1.49-.12c-.62-.05-1.01-.18-1.24-.36-.19-.14-.31-.38-.31-.73v-.02c0-.43.17-.73.46-.94.32-.23.82-.37,1.52-.37.91,0,1.65.21,2.28.61l.38.27c.06.04.14.06.21.04.07-.02.14-.06.19-.13l.56-.82c.04-.06.06-.14.05-.23,0-.04-.02-.08-.04-.11-.02-.04-.05-.07-.09-.1l-.06-.05c-.89-.63-2.13-.99-3.47-.99-1.07,0-1.99.26-2.65.75-.66.49-1.04,1.22-1.05,2.05v.04c0,.73.28,1.39.82,1.84.55.45,1.33.69,2.31.77l1.53.12c.56.05.92.17,1.12.35.18.14.3.38.3.76v.02c0,.47-.19.8-.54,1.02-.38.24-.99.39-1.85.39h-.02c-1.12,0-1.93-.26-2.55-.78l-.33-.28c-.06-.05-.13-.07-.21-.06-.08,0-.15.05-.2.11l-.64.77c-.05.06-.08.14-.07.23,0,.08.04.15.1.2l.31.26s.01,0,.02.01l.04.03c.95.68,2.12,1.01,3.56,1.01h.03c1.19,0,2.19-.26,2.93-.77.72-.5,1.15-1.27,1.15-2.15v-.04c0-.9-.35-1.57-.92-1.97"/><path class="uuid-63fd37ae-6d09-4924-abbc-27cb81b15d26" d="M822.37,231.6l-1.26-1.77-2.51-3.66,1.95-2.07,1.13-1.2.07-.08c.13-.13.07-.27,0-.33-.06-.05-.13-.08-.21-.08h-1.31c-.08,0-.17.06-.24.11l-4.38,4.67v-7.35c0-.07-.03-.15-.09-.2s-.13-.08-.21-.08h-1c-.08,0-.16.03-.21.08-.06.05-.09.13-.09.2v11.87c0,.07.03.15.09.2.06.05.13.08.21.08h1c.08,0,.16-.03.21-.08.06-.05.09-.13.09-.2v-2.4l1.9-2.06,1.28,1.91,1.8,2.68c.04.06.11.15.26.15h1.31c.08,0,.16-.03.21-.08.06-.05.09-.19,0-.33"/><path class="uuid-63fd37ae-6d09-4924-abbc-27cb81b15d26" d="M811.15,219.65h.17l.27.78.27-.78h.17v.92h-.12v-.78l-.27.78h-.12l-.27-.78v.78h-.12v-.92h.02,0Z"/><path class="uuid-63fd37ae-6d09-4924-abbc-27cb81b15d26" d="M812.97,220.07c.05,0,.1-.01.13-.03.03-.02.05-.06.05-.12s-.02-.11-.07-.13c-.02-.01-.06-.02-.1-.02h-.3v.32h.29s0-.01,0-.01ZM812.56,219.65h.42c.07,0,.12,0,.17.03.08.04.12.11.12.21,0,.05,0,.1-.03.13-.02.03-.05.06-.1.08.04.02.06.03.08.06.02.02.03.06.03.11v.12s.01.06.01.08c0,.03.02.05.04.05v.02h-.15s0-.02-.01-.03v-.23c-.01-.06-.03-.1-.07-.12-.02-.01-.06-.02-.11-.02h-.28v.4h-.12v-.92h0s0,.01,0,.01Z"/><path class="uuid-63fd37ae-6d09-4924-abbc-27cb81b15d26" d="M812.3,220.57s-.06-.03-.06-.07.02-.07.06-.07.06.03.06.07-.03.07-.06.07Z"/><path class="uuid-63fd37ae-6d09-4924-abbc-27cb81b15d26" d="M813.55,220.57s-.06-.03-.06-.07.03-.07.06-.07.06.03.06.07-.02.07-.06.07Z"/><path class="uuid-0783b88e-fdb0-4eed-b495-99daf2b3fc28" d="M758.45,182.68c-3.25,0-6.08,1.13-8.23,3.28-3.08,3.14-3.5,7.49-3.5,11.33s.42,8.2,3.5,11.34c2.14,2.14,4.98,3.28,8.23,3.28s6.08-1.13,8.23-3.28c3.08-3.14,3.5-7.49,3.5-11.34s-.42-8.2-3.5-11.34c-2.14-2.14-4.98-3.28-8.23-3.28M753.67,188.95c1.27-1.27,2.92-1.93,4.78-1.93s3.59.68,4.84,1.93c1.94,1.94,2.1,5.32,2.1,8.34s-.16,6.4-2.1,8.34c-1.25,1.25-2.96,1.93-4.84,1.93s-3.52-.66-4.78-1.93c-1.9-1.9-2.15-5.13-2.15-8.34s.27-6.45,2.15-8.34h0Z"/><path class="uuid-0783b88e-fdb0-4eed-b495-99daf2b3fc28" d="M796.94,193.47c0-3.39-1.17-6.23-3.31-8.16l-.15-.13-.03-.03c-2-1.72-4.7-2.62-7.92-2.65h-.8c-3.21.03-5.9.94-7.9,2.65l-.18.16c-2.11,1.92-3.29,4.75-3.31,8.11v.02l-.02,17.37c0,.24.1.46.28.62.17.16.42.27.66.27h3.09c.25,0,.48-.09.65-.27.17-.16.28-.39.28-.62v-16.79c.03-2.46.65-4.21,1.79-5.36,1.1-1.11,2.78-1.75,5.09-1.79,2.29.04,3.96.67,5.06,1.79,1.13,1.15,1.77,2.9,1.79,5.36v16.78c0,.24.09.46.27.62.17.16.42.27.66.27h3.09c.25,0,.48-.09.66-.27.17-.16.28-.39.28-.62l-.02-17.34h-.01s0,0,0,0Z"/><path class="uuid-0783b88e-fdb0-4eed-b495-99daf2b3fc28" d="M892.83,214.45c-.27.73-.76,1.91-1.07,2.62,0,0-.58,1.29-1.41,2.11-.76.75-1.62,1.28-2.59,1.56-.97.29-1.61.34-1.61.34-.77.05-1.91.1-2.52.1s-1.1-.63-1.1-1.42v-2.08c0-.78.32-1.42.71-1.42s1.34-.06,2.11-.14c0,0,.59-.06,1.13-.48.54-.42.82-1.01.82-1.01.33-.7.81-1.89,1.06-2.62l.57-1.6c.25-.73.25-1.93-.01-2.66l-8.58-23.47c-.27-.73.15-1.33.93-1.33h3c.77,0,1.62.6,1.87,1.34l5.62,16.6c.26.73.65.73.9,0l5.48-16.59c.25-.75,1.08-1.35,1.86-1.35h3.05c.78,0,1.2.6.93,1.33l-11.12,30.17h-.02,0Z"/><path class="uuid-0783b88e-fdb0-4eed-b495-99daf2b3fc28" d="M860.02,203.09v-.07c.02-1.48.47-2.41,1.32-3.06.89-.67,2.39-1.11,4.63-1.11h7.56v2.35c0,2.31-.51,3.58-1.19,4.18-1.63,1.51-3.66,1.74-6.13,1.75h-.07c-2.38,0-3.94-.41-4.83-1.05-.85-.6-1.28-1.48-1.3-2.97M878.61,192.3v-.02c0-2.92-.97-5.43-3.01-7.1-2.05-1.69-5-2.48-8.8-2.48h-.19c-3.99-.01-7.15.86-9.56,3.42h-.01l-.14.15c-.18.2-.36.41-.53.62l-.25.3c-.15.17-.23.41-.19.64.03.24.14.47.33.62l.14.12c.05.06.11.12.17.17l.54.44,1.44,1.24c.18.16.43.25.66.24.24,0,.45-.11.6-.3l.92-1.09c.57-.62,1.16-1.06,1.88-1.38,1.01-.44,2.3-.64,4.17-.66h.08c2.65,0,4.31.54,5.25,1.38.94.82,1.42,2.05,1.43,3.96v1.9h-7.88c-3.17,0-5.84.72-7.76,2.22-1.91,1.46-2.97,3.72-2.97,6.34v.1c0,2.18.83,4.33,2.32,5.82,2.01,1.99,4.71,2.71,8.76,2.71h2.1c3.72,0,6.38-.92,8.1-2.77,1.72-1.85,2.4-4.52,2.4-7.85v-8.75h.01Z"/><path class="uuid-63fd37ae-6d09-4924-abbc-27cb81b15d26" d="M740.68,188.89c1.63,0,2.96-1.34,2.96-2.97s-1.33-2.98-2.96-2.98-2.95,1.34-2.95,2.98,1.33,2.97,2.95,2.97Z"/><path class="uuid-63fd37ae-6d09-4924-abbc-27cb81b15d26" d="M903.95,211.81c1.63,0,2.96-1.34,2.96-2.97s-1.33-2.98-2.96-2.98-2.95,1.34-2.95,2.98,1.33,2.97,2.95,2.97Z"/><path class="uuid-0783b88e-fdb0-4eed-b495-99daf2b3fc28" d="M824.24,196.4c0-8.54-4.53-13.84-11.82-13.84s-11.82,5.47-11.82,14.63,4.46,14.63,12.55,14.63c5.03,0,7.73-1.69,10.45-4.41l.36-.36-3.47-3.05-.32.32c-2.21,2.21-4.02,3-6.9,3-4.8,0-7.51-3.05-7.66-8.58h18.64v-2.34h-.02s0,.01,0,.01ZM805.62,194.73c.1-1.79.24-2.59.77-3.94,1.01-2.38,3.31-3.86,6.01-3.86s5.01,1.48,6.01,3.86c.55,1.35.67,2.15.78,3.94h-13.59.01Z"/><path class="uuid-0783b88e-fdb0-4eed-b495-99daf2b3fc28" d="M847.51,197.54c0,2.77-.3,4.98-1.35,6.91-1.05,1.89-2.73,3.13-5.98,3.15h-.12c-3.25-.03-4.93-1.28-5.97-3.15-1.06-1.93-1.36-4.16-1.36-6.92v-.16c0-2.79.3-5.51,1.36-7.45,1.04-1.88,2.73-3.12,5.97-3.15h.17c3.23.05,4.89,1.3,5.93,3.15,1.05,1.93,1.35,4.63,1.36,7.4v.21h-.01s0,.01,0,.01ZM848.43,209.17c3.23-3.09,3.98-7.31,3.99-11.71-.01-4.43-.77-9.19-4.04-12.3-1.76-1.62-4.57-2.62-7.83-2.63h-.18c-2.67,0-5.59.79-7.63,3.05v-1.8c0-.24-.09-.46-.28-.62-.17-.16-.42-.26-.66-.26h-3.04c-.25,0-.49.09-.66.26-.17.16-.28.39-.28.62v36.03c0,.24.09.46.28.62.17.16.42.26.65.26h3.04c.25,0,.49-.09.66-.26.17-.16.28-.39.28-.62v-10.47c2.3,1.97,4.95,2.53,7.63,2.53h.17c3.27,0,6.07-1.01,7.84-2.63.02-.02.04-.04.05-.06"/><path class="uuid-ad2012ae-b5ee-4bc4-bdc5-81134af4fdd8" d="M380.92,75.35c-2.54-1.65-5.37-2.76-8.47-3.37,1.93-.56,3.78-1.28,5.54-2.18,3.75-1.9,6.77-4.65,9.07-8.25,2.3-3.6,3.45-8.05,3.45-13.35s-1.33-10.27-3.97-14.32c-2.65-4.05-6.47-7.2-11.47-9.45-5-2.25-11.15-3.37-18.45-3.37h-44.84v104.98h46.34c7.4,0,13.7-1.2,18.9-3.6,5.2-2.4,9.15-5.75,11.85-10.05,2.7-4.3,4.05-9.3,4.05-15,0-4.6-1.08-8.82-3.22-12.67-2.15-3.85-5.08-6.97-8.77-9.37ZM334.28,38.91h18.3c4.9,0,8.62,1.12,11.17,3.37,2.55,2.25,3.82,5.38,3.82,9.37s-1.28,7.1-3.82,9.3c-2.55,2.2-6.22,3.3-11.02,3.3h-18.45v-25.34ZM366,104.37c-2.75,2.25-6.62,3.37-11.62,3.37h-20.1v-26.84h19.8c5,0,8.92,1.2,11.77,3.6,2.85,2.4,4.27,5.75,4.27,10.05s-1.38,7.57-4.12,9.82Z"/><rect class="uuid-ad2012ae-b5ee-4bc4-bdc5-81134af4fdd8" x="408.97" y="50.45" width="22.5" height="75.58"/><path class="uuid-ad2012ae-b5ee-4bc4-bdc5-81134af4fdd8" d="M430.19,20.76c-2.55-2.3-5.87-3.45-9.97-3.45s-7.25,1.15-9.75,3.45c-2.5,2.3-3.75,5.25-3.75,8.85s1.25,6.4,3.75,8.7c2.5,2.3,5.75,3.45,9.75,3.45s7.42-1.15,9.97-3.45c2.55-2.3,3.82-5.2,3.82-8.7s-1.27-6.55-3.82-8.85Z"/><rect class="uuid-ad2012ae-b5ee-4bc4-bdc5-81134af4fdd8" x="451.26" y="18.06" width="22.49" height="107.98"/><rect class="uuid-ad2012ae-b5ee-4bc4-bdc5-81134af4fdd8" x="493.25" y="18.06" width="22.49" height="107.98"/><path class="uuid-ad2012ae-b5ee-4bc4-bdc5-81134af4fdd8" d="M592.23,53.6c-5.7-3.3-12.35-4.95-19.95-4.95s-14.65,1.75-20.55,5.25c-5.9,3.5-10.5,8.3-13.8,14.4-3.3,6.1-4.95,13.05-4.95,20.85s1.67,14.32,5.02,20.17c3.35,5.85,7.97,10.4,13.87,13.65,5.9,3.25,12.75,4.87,20.55,4.87,5.9,0,11.3-1.12,16.2-3.37,4.9-2.25,9.05-5.3,12.45-9.15,3.4-3.85,5.8-8.17,7.2-12.97h-22.95c-1.2,2.1-2.87,3.82-5.02,5.17-2.15,1.35-4.87,2.02-8.17,2.02-3.5,0-6.52-.75-9.07-2.25-2.55-1.5-4.5-3.6-5.85-6.3-1.07-2.15-1.71-4.55-1.93-7.2h54.8c.2-1.3.32-2.57.37-3.82.05-1.25.08-2.37.08-3.37,0-7.4-1.63-13.92-4.87-19.57-3.25-5.65-7.72-10.12-13.42-13.42ZM555.8,80.75c.39-1.84.95-3.49,1.71-4.95,1.55-3,3.62-5.25,6.22-6.75,2.6-1.5,5.5-2.25,8.7-2.25,4.2,0,7.72,1.27,10.57,3.82,2.85,2.55,4.37,5.92,4.57,10.12h-31.78Z"/><path class="uuid-ad2012ae-b5ee-4bc4-bdc5-81134af4fdd8" d="M656.57,29.16h-20.1l-2.4,21.3h-12.9v18.75h12.9v29.24c0,6.9,1.15,12.35,3.45,16.35,2.3,4,5.55,6.88,9.75,8.62,4.2,1.75,9,2.62,14.4,2.62h14.25v-19.05h-10.35c-3.3,0-5.62-.62-6.97-1.87-1.35-1.25-2.02-3.37-2.02-6.37v-29.54h19.35v-18.75h-19.35v-21.3Z"/><path class="uuid-ad2012ae-b5ee-4bc4-bdc5-81134af4fdd8" d="M748.35,53.6c-5.7-3.3-12.35-4.95-19.95-4.95s-14.65,1.75-20.55,5.25c-5.9,3.5-10.5,8.3-13.8,14.4-3.3,6.1-4.95,13.05-4.95,20.85s1.67,14.32,5.02,20.17c3.35,5.85,7.97,10.4,13.87,13.65,5.9,3.25,12.75,4.87,20.55,4.87,5.9,0,11.3-1.12,16.2-3.37,4.9-2.25,9.05-5.3,12.45-9.15,3.4-3.85,5.8-8.17,7.2-12.97h-22.95c-1.2,2.1-2.87,3.82-5.02,5.17-2.15,1.35-4.87,2.02-8.17,2.02-3.5,0-6.52-.75-9.07-2.25-2.55-1.5-4.5-3.6-5.85-6.3-1.07-2.15-1.71-4.55-1.93-7.2h54.8c.2-1.3.32-2.57.37-3.82.05-1.25.08-2.37.08-3.37,0-7.4-1.63-13.92-4.87-19.57-3.25-5.65-7.72-10.12-13.42-13.42ZM711.92,80.75c.39-1.84.95-3.49,1.71-4.95,1.55-3,3.62-5.25,6.22-6.75,2.6-1.5,5.5-2.25,8.7-2.25,4.2,0,7.72,1.27,10.57,3.82,2.85,2.55,4.37,5.92,4.57,10.12h-31.78Z"/><path class="uuid-ad2012ae-b5ee-4bc4-bdc5-81134af4fdd8" d="M812.23,56c-2.7,2.3-5.05,5.05-7.05,8.25l-2.1-13.8h-19.95v75.58h22.49v-33.74c0-3.8.47-6.97,1.42-9.52.95-2.55,2.3-4.57,4.05-6.07,1.75-1.5,3.85-2.57,6.3-3.22,2.45-.65,5.17-.98,8.17-.98h7.5v-23.84c-4.1,0-7.93.65-11.47,1.95-3.55,1.3-6.67,3.1-9.37,5.4Z"/><path class="uuid-ad2012ae-b5ee-4bc4-bdc5-81134af4fdd8" d="M900.26,52.18c-5.3-2.35-11.55-3.52-18.75-3.52-6.6,0-12.45,1.15-17.55,3.45-5.1,2.3-9.17,5.45-12.22,9.45-3.05,4-4.82,8.7-5.32,14.1h21.6c.6-3,2.1-5.2,4.5-6.6,2.4-1.4,5.35-2.1,8.85-2.1,3.3,0,5.9.55,7.8,1.65,1.9,1.1,3.27,2.75,4.12,4.95.85,2.2,1.27,5,1.27,8.4h-18.3c-7.3,0-13.35,1.03-18.15,3.07-4.8,2.05-8.32,4.8-10.57,8.25-2.25,3.45-3.37,7.42-3.37,11.92,0,4.2.98,8.02,2.92,11.47,1.95,3.45,5,6.17,9.15,8.17,4.15,2,9.37,3,15.67,3,2.9,0,5.55-.3,7.95-.9,2.4-.6,4.6-1.47,6.6-2.62,2-1.15,3.75-2.5,5.25-4.05,1.5-1.55,2.8-3.27,3.9-5.17l2.7,10.95h18.75v-46.79c0-6.7-1.48-12.3-4.42-16.8-2.95-4.5-7.07-7.92-12.37-10.27ZM893.52,95.3c-.4,2.2-1.03,4.22-1.87,6.07-.85,1.85-1.93,3.47-3.22,4.87-1.3,1.4-2.85,2.5-4.65,3.3-1.8.8-3.9,1.2-6.3,1.2-1.8,0-3.43-.27-4.87-.83-1.45-.55-2.6-1.4-3.45-2.55-.85-1.15-1.27-2.57-1.27-4.27,0-1.6.4-3,1.2-4.2.8-1.2,2.02-2.12,3.67-2.77,1.65-.65,3.72-.97,6.22-.97h14.55v.15Z"/><path class="uuid-ad2012ae-b5ee-4bc4-bdc5-81134af4fdd8" d="M996.39,90.27c-2.5-2.85-5.98-5.02-10.42-6.52-4.45-1.5-9.72-2.9-15.82-4.2-3.2-.7-5.9-1.4-8.1-2.1-2.2-.7-3.88-1.52-5.02-2.47-1.15-.95-1.72-2.02-1.72-3.23,0-1.8.85-3.25,2.55-4.35,1.7-1.1,4.2-1.65,7.5-1.65,2.9,0,5.3.52,7.2,1.57,1.9,1.05,3.15,2.58,3.75,4.57h21c-1-7.1-4.2-12.75-9.6-16.95-5.4-4.2-12.85-6.3-22.35-6.3-6.7,0-12.4,1.08-17.1,3.22-4.7,2.15-8.3,5.05-10.8,8.7-2.5,3.65-3.75,7.72-3.75,12.22,0,3.7.82,6.82,2.47,9.37,1.65,2.55,3.85,4.63,6.6,6.22,2.75,1.6,5.9,2.92,9.45,3.97,3.55,1.05,7.12,1.98,10.72,2.77,3.1.6,5.75,1.23,7.95,1.87,2.2.65,3.87,1.48,5.02,2.47,1.15,1,1.73,2.45,1.73,4.35,0,1.2-.4,2.35-1.2,3.45-.8,1.1-1.97,1.97-3.52,2.62-1.55.65-3.58.97-6.07.97-2.3,0-4.38-.37-6.22-1.12-1.85-.75-3.3-1.8-4.35-3.15-1.05-1.35-1.78-2.87-2.17-4.57h-22.34c.4,4.9,2.07,9.3,5.02,13.2,2.95,3.9,7,6.97,12.15,9.22,5.15,2.25,11.27,3.37,18.37,3.37s12.65-1.08,17.55-3.22c4.9-2.15,8.67-5.12,11.32-8.92,2.65-3.8,3.92-8.15,3.82-13.05.1-5.4-1.1-9.52-3.6-12.37Z"/><path class="uuid-b6bec044-3816-43e4-892f-e907b3388151" d="M346.42,189.68c-3.04-1.61-6.89-2.42-11.55-2.42h-11.73v39.84h11.73c4.67,0,8.52-.8,11.55-2.39,3.04-1.59,5.28-3.87,6.75-6.83,1.46-2.96,2.19-6.49,2.19-10.59s-.73-7.75-2.19-10.73c-1.46-2.98-3.71-5.27-6.75-6.89ZM348.93,215.75c-.99,2.37-2.63,4.19-4.92,5.46-2.3,1.27-5.38,1.91-9.25,1.91h-6.83v-31.87h6.83c3.87,0,6.95.65,9.25,1.94,2.3,1.29,3.94,3.13,4.92,5.52.99,2.39,1.48,5.26,1.48,8.59s-.49,6.08-1.48,8.45Z"/><rect class="uuid-b6bec044-3816-43e4-892f-e907b3388151" x="368.85" y="187.26" width="4.78" height="39.84"/><path class="uuid-b6bec044-3816-43e4-892f-e907b3388151" d="M407.83,209.57h11.5c-.3,4.29-1.54,7.68-3.7,10.19-2.16,2.5-5.37,3.76-9.62,3.76-2.73,0-5.15-.65-7.26-1.94-2.11-1.29-3.75-3.16-4.92-5.61-1.18-2.45-1.76-5.36-1.76-8.74s.59-6.28,1.76-8.71c1.18-2.43,2.85-4.3,5.04-5.61,2.18-1.31,4.73-1.96,7.65-1.96,3.15,0,5.71.7,7.68,2.11,1.97,1.4,3.23,3.3,3.76,5.69h5.52c-.83-3.83-2.75-6.82-5.75-8.96-3-2.14-6.74-3.22-11.21-3.22-3.95,0-7.37.87-10.27,2.62-2.9,1.75-5.14,4.17-6.72,7.29-1.58,3.11-2.36,6.7-2.36,10.76s.78,7.68,2.33,10.76c1.55,3.07,3.74,5.47,6.55,7.2,2.81,1.73,6.07,2.59,9.79,2.59,2.31,0,4.31-.28,5.98-.83,1.67-.55,3.12-1.37,4.35-2.45,1.23-1.08,2.32-2.4,3.27-3.96l.4,6.55h4.38v-21.29h-16.39v3.76Z"/><rect class="uuid-b6bec044-3816-43e4-892f-e907b3388151" x="438.4" y="187.26" width="4.78" height="39.84"/><polygon class="uuid-b6bec044-3816-43e4-892f-e907b3388151" points="455.7 191.19 467.6 191.19 467.6 227.1 472.38 227.1 472.38 191.19 484.27 191.19 484.27 187.26 455.7 187.26 455.7 191.19"/><path class="uuid-b6bec044-3816-43e4-892f-e907b3388151" d="M504.36,187.26l-14.68,39.84h5.01l3.68-10.25h16.95l3.67,10.25h5.07l-14.63-39.84h-5.07ZM499.77,212.99l7.1-19.75,7.07,19.75h-14.17Z"/><polygon class="uuid-b6bec044-3816-43e4-892f-e907b3388151" points="541.36 187.26 536.58 187.26 536.58 227.1 559.92 227.1 559.92 223.29 541.36 223.29 541.36 187.26"/><polygon class="uuid-b6bec044-3816-43e4-892f-e907b3388151" points="573.12 227.1 597.76 227.1 597.76 223.18 577.9 223.18 577.9 208.95 596.06 208.95 596.06 205.08 577.9 205.08 577.9 191.19 597.76 191.19 597.76 187.26 573.12 187.26 573.12 227.1"/><path class="uuid-b6bec044-3816-43e4-892f-e907b3388151" d="M636.67,211.17c-.85-1.44-2.03-2.63-3.53-3.56-1.5-.93-3.22-1.72-5.15-2.36-1.71-.57-3.26-1.08-4.67-1.54-1.4-.46-2.63-.96-3.67-1.51-1.04-.55-1.84-1.22-2.39-2.02-.55-.8-.83-1.84-.83-3.13,0-1.37.31-2.52.94-3.47.63-.95,1.5-1.68,2.62-2.19,1.12-.51,2.4-.75,3.84-.71,1.75,0,3.2.35,4.35,1.05,1.16.7,2.02,1.59,2.59,2.65.57,1.06.85,2.14.85,3.24h5.01c0-2.16-.53-4.07-1.59-5.72-1.06-1.65-2.53-2.95-4.41-3.9-1.88-.95-4.09-1.42-6.63-1.42s-4.81.47-6.69,1.39c-1.88.93-3.32,2.21-4.33,3.84-1.01,1.63-1.51,3.53-1.51,5.69,0,2.54.74,4.6,2.22,6.18,1.48,1.57,3.79,2.89,6.94,3.96,1.63.57,3.2,1.09,4.7,1.57,1.5.47,2.82,1.02,3.96,1.62,1.14.61,2.04,1.39,2.7,2.36.66.97,1,2.23,1,3.78,0,1.29-.33,2.45-1,3.47-.66,1.02-1.63,1.83-2.9,2.42-1.27.59-2.8.88-4.58.88-2.05,0-3.77-.39-5.15-1.17-1.39-.78-2.44-1.82-3.16-3.13-.72-1.31-1.08-2.74-1.08-4.3h-5.01c0,2.5.59,4.71,1.76,6.6,1.18,1.9,2.85,3.38,5.01,4.44,2.16,1.06,4.71,1.59,7.63,1.59s5.48-.53,7.46-1.59c1.97-1.06,3.46-2.44,4.47-4.13,1.01-1.69,1.51-3.48,1.51-5.38,0-2.24-.43-4.08-1.28-5.52Z"/><rect class="uuid-b6bec044-3816-43e4-892f-e907b3388151" x="686.45" y="176.35" width="5.4" height="61.94"/></g></g></svg>