<?xml version="1.0" encoding="UTF-8"?>
<svg xmlns="http://www.w3.org/2000/svg" version="1.1" viewBox="0 0 150 60">
  <!-- Generator: Adobe Illustrator 29.2.1, SVG Export Plug-In . SVG Version: 2.1.0 Build 116)  -->
  <defs>
    <style>
      .st0 {
        fill: #5b6e86;
      }

      .st1 {
        fill: #677023;
      }

      .st2 {
        fill: #fff;
      }

      .st3 {
        fill: #bac191;
      }
    </style>
  </defs>
  <!-- <g id="Layer_1">
    <g>
      <rect class="st2" x=".5" y=".5" width="149" height="59" rx="4.5" ry="4.5"/>
      <path class="st3" d="M145,1c2.2,0,4,1.8,4,4v50c0,2.2-1.8,4-4,4H5c-2.2,0-4-1.8-4-4V5C1,2.8,2.8,1,5,1h140M145,0H5C2.2,0,0,2.2,0,5v50c0,2.8,2.2,5,5,5h140c2.8,0,5-2.2,5-5V5c0-2.8-2.2-5-5-5h0Z"/>
    </g>
  </g> -->
  <g id="Layer_2">
    <g>
      <path class="st1" d="M29.6,19.2c.5-.3,1.1-.5,1.7-.5s1.3.2,1.7.5.7.8.9,1.4h1.5c-.2-1-.6-1.8-1.4-2.3-.7-.5-1.6-.8-2.8-.8s-1.8.2-2.5.6c-.7.4-1.2,1-1.6,1.8-.4.8-.6,1.6-.6,2.6s.2,1.9.6,2.6c.4.8.9,1.3,1.6,1.8.7.4,1.5.6,2.5.6s2.1-.3,2.8-.8,1.2-1.3,1.4-2.3h-1.5c-.1.6-.4,1-.9,1.3-.4.3-1,.5-1.7.5s-1.2-.2-1.7-.5c-.5-.3-.9-.7-1.1-1.3-.3-.6-.4-1.2-.4-2s.1-1.5.4-2c.3-.6.6-1,1.1-1.3h0Z"/>
      <path class="st1" d="M42,17.7l-3.6,9.7h1.5l.9-2.4h4l.8,2.4h1.5l-3.6-9.7h-1.5,0ZM41.1,23.9l1.6-4.5,1.6,4.5h-3.2Z"/>
      <path class="st1" d="M55.7,23.1c.5-.3.9-.6,1.1-1.1s.4-.9.4-1.4-.1-1-.4-1.5-.6-.8-1.1-1-1.1-.4-1.9-.4h-3.3v9.7h1.4v-3.9h1.8l1.9,3.9h1.6l-2.1-4.1c.2,0,.4-.1.5-.2h0ZM51.9,18.8h1.8c.7,0,1.2.2,1.5.5s.5.7.5,1.3-.2,1-.5,1.3c-.3.3-.8.5-1.5.5h-1.8v-3.6Z"/>
      <path class="st1" d="M65.7,23.2h2.7c0,.9-.4,1.7-.9,2.3-.5.6-1.2.8-2.2.8s-1.2-.1-1.7-.4-.9-.7-1.1-1.3-.4-1.2-.4-2,.1-1.4.4-2,.7-1,1.2-1.3c.5-.3,1.1-.5,1.8-.5s1.3.2,1.8.5c.4.3.7.7.9,1.3h1.6c-.2-.9-.7-1.7-1.4-2.2-.7-.5-1.7-.8-2.8-.8s-1.8.2-2.5.6c-.7.4-1.3,1-1.7,1.8-.4.8-.6,1.6-.6,2.6s.2,1.9.6,2.6c.4.8.9,1.3,1.6,1.8.7.4,1.5.6,2.4.6s1,0,1.4-.2.7-.3,1-.6c.3-.2.5-.5.8-.9v1.5h1.4v-5.3h-4.1v1.1h0Z"/>
      <path class="st1" d="M30.6,30.6l-4.3,11.7h2.6l.9-2.6h4.3l.9,2.6h2.7l-4.3-11.7h-2.9ZM30.6,37.8l1.5-4.4,1.5,4.4h-3Z"/>
      <path class="st1" d="M44.8,38.4c0,.4,0,.8-.2,1.1-.1.3-.4.5-.6.7s-.6.2-.9.2c-.6,0-1-.2-1.2-.5s-.4-.8-.4-1.4v-4.6h-2.5v4.8c0,.8.1,1.5.4,2.1s.6,1,1.1,1.3,1.1.4,1.8.4,1.2-.1,1.7-.4c.5-.3.8-.7,1.1-1.1l.2,1.3h2.2v-8.4h-2.5v4.5h0Z"/>
      <path class="st1" d="M52.9,31.5h-2.2l-.3,2.4h-1.4v2.1h1.4v3.3c0,.8.1,1.4.4,1.8s.6.8,1.1,1,1,.3,1.6.3h1.6v-2.1h-1.2c-.4,0-.6,0-.8-.2s-.2-.4-.2-.7v-3.3h2.2v-2.1h-2.2v-2.4h0Z"/>
      <path class="st1" d="M63,34.3c-.6-.4-1.4-.6-2.2-.6s-1.5.2-2.2.6c-.7.4-1.2.9-1.5,1.6-.4.7-.6,1.4-.6,2.3s.2,1.6.6,2.3c.4.7.9,1.2,1.5,1.6.6.4,1.4.6,2.2.6s1.6-.2,2.2-.6,1.2-.9,1.5-1.6c.4-.7.6-1.4.6-2.3s-.2-1.6-.6-2.3c-.4-.7-.9-1.2-1.5-1.6h0ZM62.3,39.3c-.2.3-.4.6-.6.8-.3.2-.6.2-.9.2s-.6,0-.9-.2c-.3-.2-.5-.4-.6-.8-.2-.3-.2-.7-.2-1.2s0-.9.2-1.2c.2-.3.4-.6.6-.8.3-.2.6-.2.9-.2s.6,0,.9.2.5.4.6.8c.2.3.2.7.2,1.2s0,.9-.2,1.2h0Z"/>
      <path class="st1" d="M79.4,34.1c-.5-.3-1.1-.5-1.9-.5s-1.1.1-1.6.4c-.5.2-.9.6-1.2,1-.2-.3-.4-.6-.6-.8-.3-.2-.6-.4-.9-.5s-.7-.2-1.1-.2-1.1.1-1.5.3c-.4.2-.8.5-1.1.9l-.2-1.1h-2.2v8.4h2.5v-4.5c0-.4,0-.8.2-1.1.1-.3.3-.5.6-.7.2-.2.5-.2.8-.2.5,0,.9.2,1.2.5.2.3.4.8.4,1.4v4.6h2.5v-4.5c0-.4,0-.8.2-1.1.1-.3.3-.5.6-.7.3-.2.6-.2.9-.2.5,0,.9.2,1.1.5.2.3.4.8.4,1.4v4.6h2.5v-4.8c0-.8-.1-1.5-.4-2.1-.2-.6-.6-1-1.1-1.3h0Z"/>
      <path class="st1" d="M88.9,34.1c-.6-.3-1.3-.4-2.1-.4s-1.4.1-2,.4c-.6.3-1,.6-1.4,1s-.5,1-.6,1.6h2.4c0-.3.2-.6.5-.7.3-.2.6-.2,1-.2s.7,0,.9.2c.2.1.4.3.5.6,0,.2.1.6.1.9h-2c-.8,0-1.5.1-2,.3-.5.2-.9.5-1.2.9-.2.4-.4.8-.4,1.3s.1.9.3,1.3c.2.4.6.7,1,.9.5.2,1,.3,1.7.3s.6,0,.9-.1c.3,0,.5-.2.7-.3s.4-.3.6-.5.3-.4.4-.6l.3,1.2h2.1v-5.2c0-.7-.2-1.4-.5-1.9-.3-.5-.8-.9-1.4-1.1h0ZM88.2,38.9c0,.2-.1.5-.2.7,0,.2-.2.4-.4.5s-.3.3-.5.4c-.2,0-.4.1-.7.1s-.4,0-.5,0c-.2,0-.3-.2-.4-.3,0-.1-.1-.3-.1-.5s0-.3.1-.5c0-.1.2-.2.4-.3.2,0,.4-.1.7-.1h1.6s0,0,0,0Z"/>
      <polygon class="st1" points="88.7 31.3 88.5 29.5 84.7 31.6 84.9 33.2 88.7 31.3"/>
      <path class="st1" d="M96.2,31.5h-2.2l-.3,2.4h-1.4v2.1h1.4v3.3c0,.8.1,1.4.4,1.8s.6.8,1.1,1c.5.2,1,.3,1.6.3h1.6v-2.1h-1.2c-.4,0-.6,0-.8-.2s-.2-.4-.2-.7v-3.3h2.2v-2.1h-2.2v-2.4h0Z"/>
      <rect class="st1" x="100.3" y="33.9" width="2.5" height="8.4"/>
      <path class="st1" d="M102.6,30.6c-.3-.3-.7-.4-1.1-.4s-.8.1-1.1.4c-.3.3-.4.6-.4,1s.1.7.4,1c.3.3.6.4,1.1.4s.8-.1,1.1-.4c.3-.3.4-.6.4-1s-.1-.7-.4-1Z"/>
      <path class="st1" d="M108.2,36.1c.3-.2.6-.3,1-.3s.7.1,1,.3.5.5.6.8h2.7c-.2-1-.7-1.8-1.4-2.4-.8-.6-1.7-.9-2.8-.9s-1.6.2-2.3.6c-.7.4-1.2.9-1.6,1.6-.4.7-.6,1.4-.6,2.3s.2,1.6.6,2.3c.4.7.9,1.2,1.6,1.6s1.4.6,2.3.6,2-.3,2.8-.9c.8-.6,1.2-1.4,1.4-2.4h-2.7c0,.2-.2.5-.3.6-.1.2-.3.3-.5.4-.2,0-.4.1-.7.1s-.5,0-.8-.2c-.2-.1-.4-.3-.6-.5s-.3-.4-.4-.7c0-.3-.1-.6-.1-.9s0-.9.2-1.2c.2-.3.4-.6.6-.8h0Z"/>
      <path class="st1" d="M123,35.8c-.4-.7-.9-1.2-1.5-1.6s-1.4-.6-2.2-.6-1.5.2-2.2.6c-.7.4-1.2.9-1.5,1.6-.4.7-.6,1.4-.6,2.3s.2,1.6.6,2.3.9,1.2,1.5,1.6c.6.4,1.4.6,2.2.6s1.6-.2,2.2-.6,1.2-.9,1.5-1.6c.4-.7.6-1.4.6-2.3s-.2-1.6-.6-2.3h0ZM120.8,39.3c-.2.3-.4.6-.6.8-.3.2-.6.2-.9.2s-.6,0-.9-.2c-.3-.2-.5-.4-.6-.8-.2-.3-.2-.7-.2-1.2s0-.9.2-1.2c.2-.3.4-.6.6-.8.3-.2.6-.2.9-.2s.6,0,.9.2.5.4.6.8c.2.3.2.7.2,1.2s0,.9-.2,1.2h0Z"/>
      <path class="st0" d="M91.8,19.9c-.4-.8-.9-1.3-1.7-1.8-.7-.4-1.5-.6-2.5-.6h-9.5c-.9,0-1.8.2-2.5.6-.7.4-1.3,1-1.7,1.8-.4.8-.6,1.6-.6,2.6s.2,1.9.6,2.6c.4.8,1,1.3,1.7,1.8.7.4,1.5.6,2.5.6h9.5c1,0,1.8-.2,2.5-.6.7-.4,1.3-1,1.7-1.8.4-.8.6-1.6.6-2.6s-.2-1.9-.6-2.6h0ZM81,24.6c-.3.6-.7,1-1.2,1.3s-1.1.5-1.8.5-1.3-.2-1.8-.5c-.5-.3-.9-.7-1.2-1.3-.3-.6-.4-1.2-.4-2s.1-1.5.4-2c.3-.6.7-1,1.2-1.3.5-.3,1.1-.5,1.8-.5s1.3.2,1.8.5c.5.3.9.7,1.2,1.3s.4,1.2.4,2-.1,1.5-.4,2ZM82.9,22.5h0Z"/>
    </g>
  </g>
</svg>