<?xml version="1.0" encoding="UTF-8"?><svg id="uuid-b53dbbe7-8a59-4f77-a301-996f5e07e5ac" xmlns="http://www.w3.org/2000/svg" viewBox="0 0 1000 205.43"><defs><style>.uuid-f3e7e44b-fcd5-4977-9395-afb7d0413b3f{fill:#f5d733;}.uuid-7a6c64ea-8ba6-4e1f-a909-e0bc2a60a10a{fill:#613dd0;}.uuid-97bd353a-33a7-4580-9861-ea3a17c868bf{fill:#3a8e37;}.uuid-5b3795f3-156a-40bb-a9cf-ca11a4fbb83c{fill:#3e6db3;}.uuid-262c892b-a8ff-404e-87e7-05f31d561f8d{fill:#222221;}.uuid-32e8d71b-bdcc-4674-ab25-7c07228bb3cc{fill:#d5002f;}</style></defs><path d="M779.76,176.53c-.72-1.48-1.78-2.72-3.17-3.7-1.91-1.34-4.21-2.01-6.89-2.01s-4.95.62-6.92,1.86-3.5,3.01-4.57,5.3c-1.08,2.3-1.62,5.03-1.62,8.2s.54,5.84,1.62,8.14c1.08,2.3,2.6,4.08,4.57,5.33,1.97,1.26,4.28,1.89,6.92,1.89s4.99-.69,6.92-2.07c1.45-1.03,2.53-2.33,3.26-3.89v5.42h4.82v-42.99h-4.94v18.51ZM777.41,194.63c-1.65,1.97-3.87,2.96-6.68,2.96s-4.98-.99-6.65-2.96-2.5-4.79-2.5-8.45.83-6.53,2.5-8.48,3.88-2.93,6.65-2.93,5.03.98,6.68,2.93c1.65,1.95,2.47,4.78,2.47,8.48s-.82,6.47-2.47,8.45Z"/><path d="M819.27,185.33c0-3.01-.52-5.59-1.55-7.74s-2.51-3.82-4.42-5c-1.91-1.18-4.21-1.77-6.89-1.77s-5.27.65-7.41,1.95c-2.13,1.3-3.81,3.1-5.03,5.4s-1.83,4.99-1.83,8.08.62,5.89,1.86,8.17c1.24,2.28,2.99,4.03,5.25,5.27,2.26,1.24,4.95,1.86,8.08,1.86,2.15,0,4.27-.37,6.34-1.1,2.07-.73,3.78-1.71,5.12-2.93l-1.71-3.48c-1.46,1.26-3.02,2.16-4.66,2.71s-3.34.82-5.09.82c-2.2,0-4.09-.44-5.67-1.31s-2.77-2.17-3.57-3.87c-.67-1.43-.99-3.2-1.09-5.18h22.28v-1.89ZM801.26,175.91c1.44-.95,3.2-1.43,5.27-1.43,2.76,0,4.87.91,6.31,2.72,1.32,1.65,2.01,3.94,2.12,6.8h-17.91c.15-1.5.42-2.9.94-4.12.73-1.69,1.82-3.01,3.26-3.96Z"/><path class="uuid-7a6c64ea-8ba6-4e1f-a909-e0bc2a60a10a" d="M617.53,60.87c-2.64-1.65-5.66-2.86-9.01-3.67,4.84-1.72,8.84-4.36,11.98-7.94,4.11-4.7,6.17-10.58,6.17-17.63,0-9.4-3.2-16.66-9.61-21.79s-15.38-7.69-26.92-7.69h-45.19v112.96h47.11c7.9,0,14.63-1.17,20.19-3.53,5.55-2.35,9.8-5.85,12.74-10.49,2.94-4.65,4.41-10.34,4.41-17.07,0-5.23-1.02-9.8-3.05-13.7-2.03-3.9-4.97-7.05-8.81-9.45ZM557.76,12.72h30.44c8.33,0,14.66,1.68,18.99,5.05s6.49,8.36,6.49,14.98-2.16,11.32-6.49,14.74c-4.33,3.42-10.66,5.13-18.99,5.13h-30.44V12.72ZM615.37,91.39c-.7,2.24-1.74,4.17-3.12,5.77-1.39,1.6-3.1,2.96-5.13,4.08-2.03,1.12-4.41,1.95-7.13,2.49s-5.8.8-9.21.8h-33.01v-41.34h33.01c3.42,0,6.49.27,9.21.8,2.72.54,5.1,1.34,7.13,2.4,2.03,1.07,3.74,2.43,5.13,4.09,1.39,1.66,2.43,3.58,3.12,5.77.69,2.19,1.04,4.73,1.04,7.61s-.35,5.29-1.04,7.53Z"/><path class="uuid-7a6c64ea-8ba6-4e1f-a909-e0bc2a60a10a" d="M698.93,2.14l-49.83,112.96h13.62l12.34-28.84h58.82l12.48,28.84h13.62L710.14,2.14h-11.22ZM704.38,17.53h.32l24.5,57.68h-49.33l24.5-57.68Z"/><polygon class="uuid-7a6c64ea-8ba6-4e1f-a909-e0bc2a60a10a" points="863.16 92.99 795.07 2.14 784.81 2.14 784.81 115.11 797.15 115.11 797.15 24.04 865.41 115.11 875.34 115.11 875.34 2.14 863.16 2.14 863.16 92.99"/><polygon class="uuid-7a6c64ea-8ba6-4e1f-a909-e0bc2a60a10a" points="937.53 57.03 996.48 2.14 979.65 2.14 924.85 53.42 924.53 53.42 924.53 2.14 911.39 2.14 911.39 115.11 924.53 115.11 924.53 61.91 924.85 61.91 982.7 115.11 1000 115.11 937.53 57.03"/><path class="uuid-7a6c64ea-8ba6-4e1f-a909-e0bc2a60a10a" d="M104.11,1.84c-.84-.19-1.65-.31-2.46-.31-1.15,0-2.27.21-3.39.64l.05.02c-1.93.76-3.43,2.04-4.53,3.83l-38.31,63.52L17.15,6.02c-1.1-1.78-2.6-3.04-4.53-3.83-1.12-.43-2.24-.64-3.39-.64-.81,0-1.62.1-2.46.31-2.03.59-3.67,1.71-4.91,3.37C.62,6.85,0,8.71,0,10.8v94c0,2.54.91,4.71,2.72,6.49,1.77,1.81,3.94,2.73,6.47,2.73s4.72-.9,6.54-2.73c1.81-1.76,2.72-3.95,2.72-6.49v-60.85s29.44,48.74,29.58,48.97c.84,1.43,2.17,2.38,3.65,3.04,1.14.55,2.41.83,3.75.83s2.6-.31,3.75-.83c1.48-.69,2.82-1.66,3.67-3.07.12-.19,29.58-48.97,29.58-48.97v60.85c0,2.54.91,4.71,2.72,6.49,1.84,1.81,4.01,2.73,6.56,2.73s4.7-.9,6.46-2.73c1.81-1.76,2.72-3.94,2.72-6.49V10.77c0-2.09-.62-3.94-1.86-5.56-1.24-1.69-2.89-2.8-4.91-3.37Z"/><path class="uuid-7a6c64ea-8ba6-4e1f-a909-e0bc2a60a10a" d="M203.64,5.3C202.55,2.99,200.1,0,195.3,0,190,0,188.05,2.99,186.96,5.3h-.02l-44.1,94c-1.09,2.28-1.21,4.66-.36,7.08.86,2.42,2.42,4.21,4.7,5.3,2.28,1.09,4.63,1.21,7.03.36,2.4-.88,4.13-2.45,5.23-4.75l35.83-76.35,35.83,76.35c1.09,2.31,2.85,3.9,5.25,4.75,2.4.86,4.73.74,7.01-.36,2.28-1.12,3.85-2.87,4.7-5.3.86-2.42.74-4.78-.36-7.08L203.64,5.3Z"/><path class="uuid-7a6c64ea-8ba6-4e1f-a909-e0bc2a60a10a" d="M327.27,20.23c9.67,0,18.06,3.26,25.14,9.79,1.88,1.73,4.09,2.54,6.63,2.45,2.55-.1,4.68-1.12,6.39-3.07,1.74-1.9,2.52-4.11,2.42-6.7-.09-2.57-1.09-4.73-2.97-6.46-10.67-9.79-23.22-14.69-37.64-14.69-15.37,0-28.51,5.49-39.44,16.49v-.05c-10.88,11.05-16.32,24.4-16.32,39.92s5.44,28.8,16.32,39.85c10.93,11,24.07,16.49,39.44,16.49,14.42,0,26.97-4.9,37.64-14.69,1.88-1.73,2.87-3.87,2.97-6.46.09-2.57-.69-4.8-2.42-6.7-1.71-1.95-3.83-2.97-6.39-3.07-2.54-.09-4.75.71-6.63,2.45-7.08,6.53-15.45,9.79-25.14,9.79-10.27,0-19.03-3.68-26.33-11.05-7.3-7.37-10.93-16.3-10.93-26.66s3.64-19.22,10.93-26.59c7.3-7.37,16.06-11.05,26.33-11.05Z"/><path class="uuid-7a6c64ea-8ba6-4e1f-a909-e0bc2a60a10a" d="M491.42,1.53c-2.68,0-4.97.9-6.89,2.71-1.94,1.83-2.89,3.99-2.89,6.51v38.97h-60.45V10.75c0-2.54-.92-4.7-2.79-6.51-1.91-1.81-4.21-2.71-6.9-2.71s-4.98.9-6.9,2.71c-1.91,1.83-2.88,3.99-2.88,6.51v94.34c0,2.52.97,4.68,2.88,6.49,1.92,1.81,4.22,2.71,6.9,2.71s4.98-.9,6.9-2.71c1.84-1.78,2.79-3.97,2.79-6.49v-37.02h60.45v37.02c0,2.52.97,4.68,2.89,6.49,1.92,1.81,4.21,2.71,6.89,2.71s4.99-.9,6.9-2.71c1.92-1.78,2.89-3.97,2.89-6.49V10.75c0-2.54-.97-4.7-2.89-6.51-1.91-1.81-4.21-2.71-6.9-2.71Z"/><rect class="uuid-262c892b-a8ff-404e-87e7-05f31d561f8d" x="981.57" y="161.22" width="9.06" height="39.13"/><path class="uuid-262c892b-a8ff-404e-87e7-05f31d561f8d" d="M986.07,147.18c-2.72,0-4.98,2.25-4.98,4.98s2.25,4.98,4.98,4.98,4.98-2.25,4.98-4.98-2.25-4.98-4.98-4.98M962.87,170.12c3.04,0,5.5,1.15,8.12,3.77l6.23-6.55c-3.04-2.99-7.39-6.08-14.25-6.08-10.79,0-19.54,8.9-19.54,19.85v.1c0,10.95,8.75,19.85,19.49,19.85,5.45,0,10-1.94,13.99-5.87l-6.44-6.23c-2.36,2.2-4.71,3.2-7.44,3.2-5.76,0-10.48-4.98-10.48-11.05v-.1c-.05-6.08,4.5-10.9,10.32-10.9M934.84,173.63c2.57-2.62,3.77-6.02,3.77-9.43,0-7.91-4.19-14.4-16.66-14.4h-17.65v50.55h17.97c13.3,0,17.86-6.76,17.86-15.24.05-4.5-1.57-8.9-5.29-11.47M913.42,158.76h8.75c5.66,0,6.6,2.67,6.6,5.45s-1.15,5.55-6.08,5.55h-9.32v-11h.05ZM922.59,191.39h-9.17v-12.68h9.32c5.6,0,7.7,2.04,7.7,6.39-.05,3.14-1.36,6.29-7.86,6.29"/><path class="uuid-97bd353a-33a7-4580-9861-ea3a17c868bf" d="M878.74,177.04s7.65,2.04,5.24,12.78h0c-.16.58-.16,1.15-.1,1.78.26,3.2,3.04,5.5,6.23,5.24,3.2-.26,5.5-3.04,5.24-6.23-.52-7.49-14.61-16.6-16.5-16.4,0,0-1.1.05-1.15,1.47,0,1.15,1.05,1.36,1.05,1.36"/><path class="uuid-f3e7e44b-fcd5-4977-9395-afb7d0413b3f" d="M876.39,180.6s4.98,1.31,3.46,8.33h0s-1.62,6.6-12.2,8.38c-12,1.99-11.79-2.41-11.79-2.41-.1-2.2-.94-4.82,10.95-12.05,0,0,5.97-3.67,9.59-2.25"/><path class="uuid-32e8d71b-bdcc-4674-ab25-7c07228bb3cc" d="M836.42,198.56c.1,3.4,2.62,6.23,5.97,6.76.47.05.94.1,1.41.1,1.89-.05,3.67-.89,4.92-2.25,1.31-1.41,1.94-3.2,1.89-5.08,0-5.13,2.3-8.96,6.97-12.52,4.19-3.09,10.21-6.86,18.65-11.58,10.53-5.6,17.34-12.2,18.86-17.55l.05-.16c.21-.68.26-1.36.21-2.04-.1-3.4-2.62-6.23-5.97-6.76-.47-.05-.94-.1-1.41-.1-1.89.05-3.67.89-4.92,2.25-1.31,1.41-1.94,3.2-1.89,5.08,0,5.4-3.25,8.96-7.65,13.15-9.38,7.33-18.02,10.95-18.02,10.95-10.53,5.6-17.34,12.2-18.86,17.55l-.05.16c-.1.68-.21,1.36-.16,2.04"/><path class="uuid-5b3795f3-156a-40bb-a9cf-ca11a4fbb83c" d="M847.58,148.07c.58,9.53,13.78,20.59,21.95,25.04,2.2,1.2,4.92,1.52,6.08,1.15,3.72-1.68-.26-3.14-.26-3.14,0,0-12.83-3.51-8.7-21.58h0c.21-.94.31-1.94.26-2.99-.42-5.29-5.08-9.27-10.42-8.9-5.29.42-9.32,5.08-8.9,10.42"/></svg>