<?xml version="1.0" encoding="UTF-8"?><svg id="uuid-2b4ac252-3347-4084-a71c-5070020c988c" xmlns="http://www.w3.org/2000/svg" viewBox="0 0 500 653.85"><defs><style>.uuid-c74dc826-10f4-4b5a-b0da-39e935954367{fill:#bec3c6;}.uuid-7b0ab405-1260-4915-8839-ac4fa00fd360{fill:#768390;}.uuid-a05679c0-f141-4247-beaa-b104caf70f50{fill:#fadc0d;}</style></defs><path class="uuid-a05679c0-f141-4247-beaa-b104caf70f50" d="M241.93,0C132.22,0,38.3,69.59,1.05,167.4h38.43C74.65,89.84,152.17,35.84,241.93,35.84c122.75,0,222.62,100.93,222.62,225s-99.87,225.05-222.62,225.05c-89.75,0-167.27-54-202.43-131.56H1.07c37.25,97.81,131.17,167.4,240.87,167.4,142.3,0,258.07-117.04,258.07-260.89S384.23,0,241.93,0Z"/><path class="uuid-7b0ab405-1260-4915-8839-ac4fa00fd360" d="M200.97,193.34h50.18l59.22,135.05h-44.9l-11.45-28.83h-57.67l-12.1,28.83h-41.6l58.33-135.05h-.02ZM226.07,221.21h-.43l-19.82,52.82h38.52l-18.27-52.82Z"/><path class="uuid-7b0ab405-1260-4915-8839-ac4fa00fd360" d="M447.73,324.53c-25.97,5.8-45.35,6.18-59.43,6.18-40.93,0-88.27-18.18-88.27-69.27s40.72-70.43,97.07-70.43c10.12,0,31.48.96,46.45,6l-3.3,29.4c-12.77-6.57-27.73-8.71-37.42-8.71-33.23,0-60.53,12.18-60.53,43.73,0,26.51,21.35,42.56,51.28,42.56,5.5,0,10.78-.78,14.53-2.33v-26.71h-24v-25.54h63.62v75.12Z"/><path class="uuid-7b0ab405-1260-4915-8839-ac4fa00fd360" d="M49.5,193.34h48.87c46.88,0,68.9,13.93,68.9,44.32,0,27.28-22.67,43.54-60.97,43.54h-15.85v47.21h-40.93v-135.05l-.02-.02ZM90.43,255.65h10.57c14.08,0,25.32-4.45,25.32-18.57s-11.23-18.18-25.32-18.18h-10.57v36.77-.02Z"/><path class="uuid-c74dc826-10f4-4b5a-b0da-39e935954367" d="M375.13,584.63h25.27l29.82,68.06h-22.62l-5.77-14.52h-29.03l-6.1,14.52h-20.95l29.37-68.06h.02ZM387.77,598.67h-.22l-9.97,26.62h19.38l-9.2-26.62Z"/><path class="uuid-c74dc826-10f4-4b5a-b0da-39e935954367" d="M499.4,650.74c-13.08,2.93-22.83,3.12-29.93,3.12-20.62,0-44.43-9.17-44.43-34.91s20.5-35.49,48.87-35.49c5.1,0,15.85.49,23.38,3.03l-1.67,14.81c-6.43-3.32-13.97-4.38-18.83-4.38-16.73,0-30.47,6.13-30.47,22.04,0,13.36,10.75,21.45,25.82,21.45,2.77,0,5.43-.39,7.32-1.18v-13.46h-12.08v-12.87h32.03v37.84Z"/><path class="uuid-c74dc826-10f4-4b5a-b0da-39e935954367" d="M298.85,584.63h24.6c23.6,0,34.68,7.03,34.68,22.33,0,13.75-11.42,21.94-30.7,21.94h-7.98v23.79h-20.62v-68.06h.02ZM319.47,616.03h5.32c7.1,0,12.73-2.24,12.73-9.35s-5.65-9.17-12.73-9.17h-5.32v18.52Z"/><path class="uuid-c74dc826-10f4-4b5a-b0da-39e935954367" d="M126.18,584.63h36.78c13.73,0,24.93,5.46,24.93,17.15,0,9.07-4.88,15.11-14.85,17.17v.2c6.65,1.55,7.1,6.72,10.97,15.01l7.53,18.52h-21.5l-4.43-12.28c-4.22-11.69-6.87-14.63-14.52-14.63h-4.32v26.91h-20.62v-68.06h.02ZM146.8,612.91h5.43c6.65,0,15.07-.2,15.07-7.9,0-6.34-7.2-7.52-15.07-7.52h-5.43v15.42Z"/><path class="uuid-c74dc826-10f4-4b5a-b0da-39e935954367" d="M188.35,584.63h21.95l17.18,53.43h.22l17.28-53.43h21.17l-26.38,68.06h-25.48l-25.93-68.06Z"/><path class="uuid-c74dc826-10f4-4b5a-b0da-39e935954367" d="M270.78,584.63h20.62v68.06h-20.62v-68.06Z"/><path class="uuid-c74dc826-10f4-4b5a-b0da-39e935954367" d="M2.55,635.91c5.32,2.53,12.75,4.48,21.27,4.48,6.53,0,12.75-1.18,12.75-6.64,0-12.67-36.57-4.67-36.57-29.44,0-16.38,18.17-20.86,33.68-20.86,7.43,0,14.75.98,19.95,2.53l-1.33,14.04c-5.32-2.14-11.3-3.12-17.18-3.12-5.22,0-13.85.39-13.85,6.34,0,11.02,36.57,3.61,36.57,28.17,0,17.64-16.85,22.43-34.02,22.43-7.2,0-16.17-.98-23.05-2.93l1.77-15.01.02.02Z"/><path class="uuid-c74dc826-10f4-4b5a-b0da-39e935954367" d="M62.08,584.63h54.52v12.87h-33.92v14.04h32.02v12.87h-32.02v15.4h35.13v12.87h-55.75v-68.06h.02Z"/></svg>