<?xml version="1.0" encoding="UTF-8"?>
<svg xmlns="http://www.w3.org/2000/svg" version="1.1" viewBox="0 0 150 60">
  <!-- Generator: Adobe Illustrator 29.2.1, SVG Export Plug-In . SVG Version: 2.1.0 Build 116)  -->
  <defs>
    <style>
      .st0 {
        fill: #f20073;
      }

      .st1 {
        fill: #009cdf;
      }

      .st2 {
        fill: #fff;
      }

      .st3 {
        fill: #7f1a7a;
      }

      .st4 {
        fill: #bac191;
      }
    </style>
  </defs>
  <!-- <g id="Layer_1">
    <g>
      <rect class="st2" x=".5" y=".5" width="149" height="59" rx="4.5" ry="4.5"/>
      <path class="st4" d="M145,1c2.2,0,4,1.8,4,4v50c0,2.2-1.8,4-4,4H5c-2.2,0-4-1.8-4-4V5C1,2.8,2.8,1,5,1h140M145,0H5C2.2,0,0,2.2,0,5v50c0,2.8,2.2,5,5,5h140c2.8,0,5-2.2,5-5V5c0-2.8-2.2-5-5-5h0Z"/>
    </g>
  </g> -->
  <g id="Layer_2">
    <g>
      <path class="st1" d="M40.6,39.1c.2,0,.4-.2.4-.4s-.2-.4-.4-.4-.4.2-.4.4.2.4.4.4Z"/>
      <path class="st3" d="M73.4,42.5c.2,0,.4-.2.4-.4s-.2-.4-.4-.4-.4.2-.4.4.2.4.4.4Z"/>
      <path class="st0" d="M53.4,39.9c0-.5-.2-.9-.5-1.2h0s0,0,0,0h0c-.3-.2-.7-.4-1.1-.4h-.1c-.5,0-.8.1-1.1.4h0c-.3.3-.5.7-.5,1.2v2.4s0,0,0,0c0,0,0,0,0,0h.4s0,0,0,0c0,0,0,0,0,0v-2.4c0-.3,0-.6.3-.8.2-.2.4-.2.7-.3.3,0,.6,0,.7.3.2.2.2.4.3.8v2.4s0,0,0,0c0,0,0,0,0,0h.4s0,0,0,0c0,0,0,0,0,0v-2.4h0s0,0,0,0Z"/>
      <path class="st0" d="M68.6,39.9c0-.5-.2-.9-.5-1.2h0s0,0,0,0h0c-.3-.2-.7-.4-1.1-.4h-.1c-.5,0-.8.1-1.1.4h0c-.3.3-.5.7-.5,1.2v2.4s0,0,0,0c0,0,0,0,0,0h.4s0,0,0,0c0,0,0,0,0,0v-2.4c0-.3,0-.6.3-.8.2-.2.4-.2.7-.3.3,0,.6,0,.7.3s.2.4.3.8v2.4s0,0,0,0c0,0,0,0,0,0h.4s0,0,0,0c0,0,0,0,0,0v-2.4h0s0,0,0,0Z"/>
      <path class="st0" d="M60.4,40.4h0c0,.4,0,.8-.2,1.1-.1.3-.4.4-.8.4h0c-.5,0-.7-.2-.8-.4-.1-.3-.2-.7-.2-1.1h0c0-.4,0-.7.2-1,.1-.3.4-.4.8-.4h0c.5,0,.7.2.8.4.1.3.2.6.2,1h0s0,0,0,0ZM60.5,38.7s0,0,0,0c-.2-.2-.6-.4-1.1-.4h0c-.4,0-.8,0-1.1.4v-1.5s0,0,0,0c0,0,0,0,0,0h-.4s0,0,0,0c0,0,0,0,0,0v5.1s0,0,0,0c0,0,0,0,0,0h.4s0,0,0,0c0,0,0,0,0,0v-.3c.3.3.7.4,1.1.4h0c.5,0,.9-.1,1.1-.4.5-.4.6-1.1.6-1.7s-.1-1.2-.6-1.7"/>
      <path class="st0" d="M48.8,41c0,.3,0,.5-.2.6-.2.2-.5.2-.9.2h0c-.3,0-.6,0-.7-.1-.1,0-.2-.2-.2-.4h0c0-.2,0-.3.2-.4.1,0,.3-.2.7-.2h1.1v.3h0ZM49.5,39.7c0-.4-.1-.8-.4-1-.3-.2-.7-.4-1.2-.4h0c-.6,0-1,.1-1.4.5h0c0,0,0,0,0,.1h0c0,0,0,.1,0,.1,0,0,0,0,0,0h0s0,0,0,0h0c0,0,.2.2.2.2,0,0,0,0,0,0s0,0,0,0v-.2c.2,0,.3-.2.4-.2.1,0,.3,0,.6,0h0c.4,0,.6,0,.7.2.1.1.2.3.2.6v.3h-1.1c-.5,0-.8.1-1.1.3-.3.2-.4.5-.4.9h0c0,.3.1.6.3.8.3.3.7.4,1.2.4h.3c.5,0,.9-.1,1.2-.4.2-.3.3-.6.3-1.1v-1.2h0s0,0,0,0Z"/>
      <path class="st0" d="M62.1,41.2h0c0-.2,0-.3.2-.4.1,0,.3-.2.7-.2h1.1v.3c0,.3,0,.5-.2.6-.2.2-.5.2-.9.2h0c-.3,0-.6,0-.7-.1-.1,0-.2-.2-.2-.4h0ZM64.7,39.7c0-.4-.1-.8-.4-1-.3-.2-.7-.4-1.2-.4h0c-.6,0-1,.1-1.4.5h0c0,0,0,0,0,.1h0c0,0,0,.1,0,.1,0,0,0,0,0,0h0s0,0,0,0h0c0,0,.2.2.2.2,0,0,0,0,0,0s0,0,0,0v-.2c.2,0,.3-.2.4-.2.1,0,.3,0,.6,0h0c.4,0,.6,0,.7.2.1.1.2.3.2.6v.3h-1.1c-.5,0-.8.1-1.1.3-.3.2-.4.5-.4.9h0c0,.3.1.6.3.8.3.3.7.4,1.2.4h.3c.5,0,.9-.1,1.2-.4.2-.3.3-.6.3-1.1v-1.2h0Z"/>
      <path class="st0" d="M42.8,38.3h-.7v-1.1c0,0,0-.1-.1-.1h-.4s0,0,0,0c0,0,0,0,0,0v4.2c0,.3,0,.5.3.7.2.2.5.3.8.3h.4s0,0,0,0c0,0,0,0,0,0v-.4s0,0,0,0,0,0,0,0h-.3c0,0-.1,0-.2,0,0,0,0,0,0,0,0,0,0,0,0,0,0,0-.1-.2-.1-.3v-2.3h.7s0,0,0,0c0,0,0,0,0,0v-.4s0,0,0,0,0,0,0,0h0Z"/>
      <path class="st0" d="M46,38.8h0s0,0,0,0h0s0,0,0,0h0c-.3-.3-.6-.4-.9-.4h0c-.2,0-.5.1-.7.3h-.1c0,.1,0-.2,0-.2,0,0,0,0,0,0,0,0,0,0,0,0h-.4s0,0,0,0c0,0,0,0,0,0v3.9s0,0,0,0c0,0,0,0,0,0h.4s0,0,0,0c0,0,0,0,0,0v-2.5c0-.2,0-.4.2-.5.1-.1.3-.2.5-.2.1,0,.2,0,.3,0,0,0,.1,0,.2.2h0s0,.1,0,.1c0,0,0,0,0,0s0,0,0,0l.3-.3s0,0,0,0c0,0,0,0,0,0"/>
      <path class="st0" d="M56.8,40.3h0c-.3-.2-.6-.2-.9-.3h-.6c-.3,0-.4-.1-.5-.2,0,0-.1-.2-.1-.3h0c0-.2,0-.3.2-.4.1,0,.3-.2.7-.2s.7,0,1,.3h.2c0,.1,0,.1,0,.1,0,0,0,0,0,0l.2-.3s0,0,0,0c0,0,0,0,0,0,0,0,0,0,0,0h0c-.4-.3-.9-.4-1.5-.4s-.9.1-1.1.3c-.3.2-.4.5-.4.9h0c0,.3.1.6.4.8.2.2.6.3,1,.3h.7c.2,0,.4.1.5.2,0,0,.1.2.1.3h0c0,.2,0,.3-.2.4-.2.1-.4.2-.8.2h0c-.5,0-.8-.1-1.1-.3h-.1c0-.1,0-.1,0-.1,0,0,0,0,0,0l-.3.3s0,0,0,0c0,0,0,0,0,0h.1c0,.1,0,.1,0,.1h0c.4.3.9.4,1.5.4h0c.5,0,.9-.1,1.3-.3.3-.2.5-.5.5-.9h0c0-.4-.1-.7-.4-.9"/>
      <path class="st0" d="M72.6,42.3l-.5-.8-1.1-1.6.8-.9.5-.5h0c0,0,0-.1,0-.2,0,0,0,0,0,0h-.6s0,0-.1,0l-1.9,2v-3.2s0,0,0,0c0,0,0,0,0,0h-.4s0,0,0,0c0,0,0,0,0,0v5.1s0,0,0,0c0,0,0,0,0,0h.4s0,0,0,0c0,0,0,0,0,0v-1l.8-.9.5.8.8,1.2s0,0,.1,0h.6s0,0,0,0c0,0,0,0,0-.1"/>
      <path class="st0" d="M67.8,37.1h0v.3c.1,0,.2-.3.2-.3h0v.4h0v-.3.3h-.2v-.3c-.1,0-.1.3-.1.3h0v-.4h0Z"/>
      <path class="st0" d="M68.6,37.3s0,0,0,0c0,0,0,0,0,0s0,0,0,0c0,0,0,0,0,0h-.1c0,.1.1.1.1.1h0s0,0,0,0ZM68.4,37.1h.2s0,0,0,0c0,0,0,0,0,0s0,0,0,0c0,0,0,0,0,0,0,0,0,0,0,0,0,0,0,0,0,0h0c0,0,0,0,0,0,0,0,0,0,0,0h0s0,0,0,0c0,0,0,0,0,0h0c0-.1,0-.1,0-.1,0,0,0,0,0,0h-.1v.2h0v-.4h0s0,0,0,0Z"/>
      <path class="st0" d="M68.3,37.5s0,0,0,0,0,0,0,0,0,0,0,0,0,0,0,0"/>
      <path class="st0" d="M68.9,37.5s0,0,0,0,0,0,0,0,0,0,0,0,0,0,0,0Z"/>
      <path class="st3" d="M77.2,27.3h0c0,1.2-.1,2.4-.6,3.2-.4.8-1.1,1.3-2.5,1.3h0c-1.4,0-2.1-.5-2.5-1.3-.4-.8-.6-2-.6-3.1h0c0-1.2.1-2.2.6-3,.4-.8,1.1-1.3,2.5-1.3h0c1.4,0,2.1.5,2.5,1.3.4.8.6,1.7.6,2.9,0,0,0,0,0,0ZM77.6,22.4s0,0,0,0c-.7-.7-1.9-1.1-3.3-1.1h0c-1.1,0-2.2.2-3.2,1.1v-4.4c0,0,0-.2-.1-.3,0,0-.2-.1-.3-.1h-1.3c-.1,0-.2,0-.3.1,0,0-.1.2-.1.3v15.2c0,0,0,.2.1.3s.2.1.3.1h1.3c.1,0,.2,0,.3-.1,0,0,.1-.2.1-.3v-.8c.9,1,2.1,1.3,3.2,1.3h0c1.4,0,2.6-.4,3.3-1.1,1.4-1.3,1.7-3.3,1.7-5.2,0-1.9-.3-3.6-1.7-4.9"/>
      <path class="st3" d="M89,27.5c0,1.2-.1,2.1-.6,2.9-.4.8-1.2,1.3-2.5,1.3h0c-1.4,0-2.1-.5-2.5-1.3-.4-.8-.6-1.8-.6-2.9h0c0-1.2.1-2.4.6-3.2.4-.8,1.1-1.3,2.5-1.3h0c1.4,0,2.1.5,2.5,1.3.4.8.6,2,.6,3.1h0ZM89.4,32.4c1.4-1.3,1.7-3.1,1.7-4.9,0-1.9-.3-3.9-1.7-5.2-.7-.7-1.9-1.1-3.3-1.1h0c-1.1,0-2.4.3-3.2,1.3v-.8c0,0,0-.2-.1-.3s-.2-.1-.3-.1h-1.3c-.1,0-.2,0-.3.1,0,0-.1.2-.1.3v15.2c0,0,0,.2.1.3s.2.1.3.1h1.3c.1,0,.2,0,.3-.1,0,0,.1-.2.1-.3v-4.4c1,.8,2.1,1.1,3.2,1.1h0c1.4,0,2.6-.4,3.3-1.1,0,0,0,0,0,0"/>
      <path class="st3" d="M107.8,34.5c-.1.3-.3.8-.5,1.1,0,0-.2.5-.6.9-.3.3-.7.5-1.1.7-.4.1-.7.1-.7.1-.3,0-.8,0-1.1,0s-.5-.3-.5-.6v-.9c0-.3.1-.6.3-.6s.6,0,.9,0c0,0,.2,0,.5-.2s.3-.4.3-.4c.1-.3.3-.8.4-1.1l.2-.7c.1-.3.1-.8,0-1.1l-3.6-9.8c-.1-.3,0-.6.4-.6h1.3c.3,0,.7.3.8.6l2.4,6.9c.1.3.3.3.4,0l2.3-6.9c.1-.3.5-.6.8-.6h1.3c.3,0,.5.3.4.6l-4.7,12.6h0s0,0,0,0Z"/>
      <path class="st3" d="M94.2,29.9h0c0-.7.2-1,.6-1.3.4-.3,1-.5,1.9-.5h3.2v1c0,1-.2,1.5-.5,1.8-.7.6-1.5.7-2.6.7h0c-1,0-1.7-.2-2-.4-.4-.3-.5-.6-.5-1.2M102,25.4h0c0-1.2-.4-2.3-1.3-3-.9-.7-2.1-1-3.7-1h0c-1.7,0-3,.4-4,1.4h0c0,.1-.1.2-.2.3h-.1c0,.2,0,.3,0,.4,0,0,0,.2.1.3h0c0,0,0,.1,0,.1l.2.2.6.5c0,0,.2.1.3,0,0,0,.2,0,.3-.1l.4-.5c.2-.3.5-.4.8-.6.4-.2,1-.3,1.7-.3h0c1.1,0,1.8.2,2.2.6.4.3.6.9.6,1.7v.8h-3.3c-1.3,0-2.4.3-3.3.9-.8.6-1.2,1.6-1.2,2.7h0c0,1,.3,1.9,1,2.5.8.8,2,1.1,3.7,1.1h.9c1.6,0,2.7-.4,3.4-1.2.7-.8,1-1.9,1-3.3v-3.7h0Z"/>
      <path class="st3" d="M55.6,21.4c-.3,0-.7.3-.8.6l-2.2,7.9c0,.3-.3.3-.4,0l-2.6-7.9c-.1-.3-.5-.6-.8-.6h-.5c-.3,0-.7.3-.8.6l-2.6,7.9c-.1.3-.3.3-.4,0l-2.3-7.9c0-.3-.4-.6-.8-.6h-1c-.3,0-.5.3-.4.6l3.5,10.9c.1.3.5.6.8.6h.7c.3,0,.6-.2.7-.5l2.6-7.7c.1-.3.3-.3.4,0l2.6,7.7c.1.3.5.6.8.6h.6c.3,0,.7-.2.7-.5l3.5-11c.1-.3,0-.6-.4-.6h-1s0,0,0,0Z"/>
      <path class="st3" d="M67.4,27.1c0-3.6-1.9-5.8-5-5.8s-5,2.3-5,6.2,1.9,6.2,5.3,6.2,3.3-.7,4.4-1.9l.2-.2-1.5-1.3h-.1c-.9,1.1-1.7,1.4-2.9,1.4-2,0-3.2-1.3-3.2-3.6h7.8v-1h0s0,0,0,0ZM59.6,26.4c0-.8,0-1.1.3-1.7.4-1,1.4-1.6,2.5-1.6s2.1.6,2.5,1.6c.2.6.3.9.3,1.7h-5.7,0Z"/>
      <path class="st0" d="M37.6,23.9c.7,0,1.2-.6,1.2-1.2s-.6-1.2-1.2-1.2-1.2.6-1.2,1.2.6,1.2,1.2,1.2Z"/>
      <path class="st0" d="M112.4,33.5c.7,0,1.2-.6,1.2-1.2s-.5-1.2-1.2-1.2-1.2.6-1.2,1.2.5,1.2,1.2,1.2Z"/>
    </g>
  </g>
</svg>